A - MAFIA CRIME PAYS - 2012


Format                           : MPEG-4
Format profile                   : Base Media
Codec ID                         : isom
File size                        : 56.8 MiB
Duration                         : 3mn 14s
Overall bit rate                 : 2 457 Kbps
Writing application              : Lavf52.57.1

Video
ID                               : 1
Format                           : AVC
Format/Info                      : Advanced Video Codec
Format profile                   : High@L3.1
Format settings, CABAC           : Yes
Format settings, ReFrames        : 5 frames
Codec ID                         : avc1
Codec ID/Info                    : Advanced Video Coding
Duration                         : 3mn 13s
Bit rate mode                    : Variable
Bit rate                         : 2 137 Kbps
Width                            : 1 280 pixels
Height                           : 720 pixels
Display aspect ratio             : 16:9
Frame rate mode                  : Constant
Frame rate                       : 24.000 fps
Color space                      : YUV
Chroma subsampling               : 4:2:0
Bit depth                        : 8 bits
Scan type                        : Progressive
Bits/(Pixel*Frame)               : 0.097
Stream size                      : 49.3 MiB (87%)

Audio
ID                               : 2
Format                           : MPEG Audio
Format version                   : Version 1
Format profile                   : Layer 3
Mode                             : Joint stereo
Mode extension                   : MS Stereo
Codec ID                         : 6B
Duration                         : 3mn 14s
Bit rate mode                    : Constant
Bit rate                         : 320 Kbps
Channel(s)                       : 2 channels
Sampling rate                    : 44.1 KHz
Stream size                      : 7.40 MiB (13%)
Writing library                  : LAME3.98.2

 
http://www.aedes.us/d/FK4kW.jpg